Coordinates
version=1
nRows=16
nColumns=40
inDegrees=yes

Units are S.I. units (second, meters, Newtons, ...)
If the header above contains a line with 'inDegrees', this indicates whether rotational values are in degrees (yes) or radians (no).

endheader
time	pelvis_tilt	pelvis_list	pelvis_rotation	pelvis_tx	pelvis_ty	pelvis_tz	hip_flexion_r	hip_adduction_r	hip_rotation_r	knee_angle_r	knee_angle_r_beta	ankle_angle_r	subtalar_angle_r	mtp_angle_r	hip_flexion_l	hip_adduction_l	hip_rotation_l	knee_angle_l	knee_angle_l_beta	ankle_angle_l	subtalar_angle_l	mtp_angle_l	lumbar_extension	lumbar_bending	lumbar_rotation	arm_flex_r	arm_add_r	arm_rot_r	elbow_flex_r	pro_sup_r	wrist_flex_r	wrist_dev_r	arm_flex_l	arm_add_l	arm_rot_l	elbow_flex_l	pro_sup_l	wrist_flex_l	wrist_dev_l
      2.65500000	     -1.92989658	     -2.13195710	     -3.22660188	      0.16585911	      0.42150837	     -1.20904230	     99.14825229	    -43.88087973	     24.60221039	    125.79075092	      2.19546277	     36.79011304	     14.52971357	      0.00000000	    106.50970866	    -48.90879636	     34.93864324	    125.29535248	      2.18681644	     35.16110337	     23.91646490	      0.00000000	    -35.60490032	      0.82559573	      0.41759778	     44.99992267	    -14.99999999	     44.99992267	     75.00017585	     45.00000026	      0.00000000	      0.00000000	     44.99992267	    -14.99999999	     44.99992267	     75.00017585	     45.00000026	      0.00000000	      0.00000000
      2.66000000	     -2.12044580	     -2.03861507	     -3.22419967	      0.16541387	      0.42302347	     -1.20895091	     99.18741653	    -43.83621434	     24.45731100	    125.56809344	      2.19157667	     36.64157603	     14.43967501	      0.00000000	    106.28254930	    -48.92552218	     34.45220791	    125.06259525	      2.18275406	     35.07375781	     23.87673647	      0.00000000	    -35.42967255	      0.72293549	      0.39055818	     44.99992274	    -14.99999999	     44.99992274	     75.00017585	     45.00000026	      0.00000000	      0.00000000	     44.99992274	    -14.99999999	     44.99992274	     75.00017585	     45.00000026	      0.00000000	      0.00000000
      2.66500000	     -2.39927680	     -2.03851116	     -3.23179668	      0.16496376	      0.42438062	     -1.20890960	     99.19141133	    -43.77278581	     24.14691029	    125.34181292	      2.18762733	     36.51003950	     14.30187150	      0.00000000	    106.33165305	    -48.91520781	     34.13706711	    124.83752662	      2.17882587	     34.90502150	     23.70484175	      0.00000000	    -35.09753514	      0.74938026	      0.37600092	     44.99992280	    -14.99999999	     44.99992280	     75.00017585	     45.00000026	      0.00000000	      0.00000000	     44.99992280	    -14.99999999	     44.99992280	     75.00017585	     45.00000026	      0.00000000	      0.00000000
      2.67000000	     -2.74693748	     -2.10391622	     -3.25864748	      0.16449768	      0.42563255	     -1.20891969	     99.19777126	    -43.68843787	     23.71740151	    125.09464673	      2.18331346	     36.34165588	     14.11423868	      0.00000000	    106.57526657	    -48.87844567	     33.97387396	    124.62333385	      2.17508750	     34.67412788	     23.49823495	      0.00000000	    -34.73299103	      0.84148943	      0.46589270	     44.99992287	    -14.99999999	     44.99992287	     75.00017585	     45.00000026	      0.00000000	      0.00000000	     44.99992287	    -14.99999999	     44.99992287	     75.00017585	     45.00000026	      0.00000000	      0.00000000
      2.67500000	     -2.87615501	     -1.99838896	     -3.30212340	      0.16382881	      0.42782867	     -1.20872542	     99.05987794	    -43.55864037	     23.40678515	    124.79856666	      2.17814589	     36.20671207	     13.53557869	      0.00000000	    106.12750735	    -48.94707548	     33.30724680	    124.32017606	      2.16979640	     34.68227094	     23.09265784	      0.00000000	    -34.67957385	      0.69200052	      0.46426054	     44.99992293	    -14.99999999	     44.99992293	     75.00017585	     45.00000026	      0.00000000	      0.00000000	     44.99992293	    -14.99999999	     44.99992293	     75.00017585	     45.00000026	      0.00000000	      0.00000000
      2.68000000	     -2.83832949	     -2.04503828	     -3.16769347	      0.16338072	      0.43058494	     -1.20905149	     98.49475149	    -43.75344968	     22.88008940	    124.47175026	      2.17244187	     36.17272409	     13.20767480	      0.00000000	    105.54841094	    -48.85636825	     32.75611883	    124.01861063	      2.16453309	     34.78085980	     22.96157690	      0.00000000	    -34.80991561	      0.76931237	      0.31475985	     44.99992298	    -14.99999999	     44.99992298	     75.00017585	     45.00000026	      0.00000000	      0.00000000	     44.99992298	    -14.99999999	     44.99992298	     75.00017585	     45.00000026	      0.00000000	      0.00000000
      2.68500000	     -3.57050510	     -2.05430653	     -3.27562120	      0.16305710	      0.43067142	     -1.20876650	     99.12764046	    -43.51505673	     22.72586406	    124.27836664	      2.16906669	     35.82784240	     13.66748188	      0.00000000	    106.43954683	    -48.86572689	     32.80689631	    123.81892302	      2.16104788	     34.16003546	     23.08886978	      0.00000000	    -33.83582935	      0.82147726	      0.46674945	     44.99992303	    -14.99999999	     44.99992303	     75.00017585	     45.00000026	      0.00000000	      0.00000000	     44.99992303	    -14.99999999	     44.99992303	     75.00017585	     45.00000026	      0.00000000	      0.00000000
      2.69000000	     -3.90244636	     -2.07871232	     -3.30554460	      0.16255700	      0.43239587	     -1.20873354	     99.08513590	    -43.42007094	     22.29307869	    123.98300064	      2.16391158	     35.62320497	     13.41905398	      0.00000000	    106.50670175	    -48.86526069	     32.48191261	    123.54331668	      2.15623764	     33.95645497	     22.90785126	      0.00000000	    -33.46429322	      0.87983154	      0.54303432	     44.99992308	    -14.99999999	     44.99992308	     75.00017585	     45.00000026	      0.00000000	      0.00000000	     44.99992308	    -14.99999999	     44.99992308	     75.00017585	     45.00000026	      0.00000000	      0.00000000
      2.69500000	     -4.12210001	     -2.14953824	     -3.26925944	      0.16209638	      0.43451524	     -1.20887467	     98.83406781	    -43.45180310	     21.78178722	    123.65048189	      2.15810803	     35.46157510	     13.27347914	      0.00000000	    106.42999258	    -48.81332683	     32.15282723	    123.24843888	      2.15109106	     33.77052807	     22.74296867	      0.00000000	    -33.22286653	      1.01142852	      0.51608437	     44.99992312	    -14.99999999	     44.99992312	     75.00017585	     45.00000026	      0.00000000	      0.00000000	     44.99992312	    -14.99999999	     44.99992312	     75.00017585	     45.00000026	      0.00000000	      0.00000000
      2.70000000	     -4.52236228	     -2.13627344	     -3.29712652	      0.16159452	      0.43623425	     -1.20877703	     98.89187742	    -43.34138894	     21.39086765	    123.34037055	      2.15269557	     35.26905984	     13.05693095	      0.00000000	    106.51815945	    -48.80814522	     31.75566986	    122.94764038	      2.14584113	     33.55097168	     22.52690854	      0.00000000	    -32.74826748	      1.03538533	      0.59026193	     44.99992317	    -14.99999999	     44.99992317	     75.00017585	     45.00000026	      0.00000000	      0.00000000	     44.99992317	    -14.99999999	     44.99992317	     75.00017585	     45.00000026	      0.00000000	      0.00000000
      2.70500000	     -4.84110879	     -2.13017500	     -3.30944945	      0.16112625	      0.43827278	     -1.20875033	     98.82341876	    -43.28012710	     20.98030550	    122.99010144	      2.14658222	     35.06608638	     12.88615343	      0.00000000	    106.46579533	    -48.80729502	     31.32878535	    122.63441857	      2.14037438	     33.34236967	     22.37943985	      0.00000000	    -32.37406852	      1.05723106	      0.61491189	     44.99992321	    -14.99999999	     44.99992321	     75.00017585	     45.00000026	      0.00000000	      0.00000000	     44.99992321	    -14.99999999	     44.99992321	     75.00017585	     45.00000026	      0.00000000	      0.00000000
      2.71000000	     -5.19274574	     -2.16977441	     -3.31558628	      0.16060838	      0.44030572	     -1.20871477	     98.72325633	    -43.20521599	     20.47568970	    122.66235056	      2.14086189	     34.87267321	     12.62377890	      0.00000000	    106.51019748	    -48.77982885	     30.95502271	    122.29829611	      2.13450794	     33.09551232	     22.06877117	      0.00000000	    -31.95256245	      1.15923125	      0.68498748	     44.99992324	    -14.99999999	     44.99992324	     75.00017585	     45.00000026	      0.00000000	      0.00000000	     44.99992324	    -14.99999999	     44.99992324	     75.00017585	     45.00000026	      0.00000000	      0.00000000
      2.71500000	     -5.44341237	     -2.10707585	     -3.31013347	      0.16013988	      0.44276789	     -1.20861304	     98.61006089	    -43.17817321	     20.10268983	    122.28878495	      2.13434194	     34.67740927	     12.47709518	      0.00000000	    106.21663392	    -48.81125291	     30.34586276	    121.91531816	      2.12782371	     32.94440574	     21.97460711	      0.00000000	    -31.66751813	      1.09864158	      0.66724430	     44.99992328	    -14.99999999	     44.99992328	     75.00017585	     45.00000026	      0.00000000	      0.00000000	     44.99992328	    -14.99999999	     44.99992328	     75.00017585	     45.00000026	      0.00000000	      0.00000000
      2.72000000	     -5.71858435	     -2.08828483	     -3.29361677	      0.15969003	      0.44519842	     -1.20858863	     98.45012286	    -43.14724888	     19.67761584	    121.91902391	      2.12788839	     34.46591775	     12.29523908	      0.00000000	    106.00829633	    -48.80065826	     29.81581653	    121.55500145	      2.12153500	     32.74298112	     21.79529751	      0.00000000	    -31.31780445	      1.09545601	      0.63959538	     44.99992332	    -14.99999999	     44.99992332	     75.00017585	     45.00000026	      0.00000000	      0.00000000	     44.99992332	    -14.99999999	     44.99992332	     75.00017585	     45.00000026	      0.00000000	      0.00000000
      2.72500000	     -6.03508404	     -2.08549802	     -3.29196316	      0.15923763	      0.44759811	     -1.20855036	     98.31235371	    -43.09745781	     19.21360170	    121.53594705	      2.12120244	     34.26259463	     12.10896575	      0.00000000	    105.87815055	    -48.79498752	     29.32003301	    121.18196013	      2.11502420	     32.52269656	     21.59328997	      0.00000000	    -30.92123287	      1.11983193	      0.63477035	     44.99992336	    -14.99999999	     44.99992336	     75.00017585	     45.00000026	      0.00000000	      0.00000000	     44.99992336	    -14.99999999	     44.99992336	     75.00017585	     45.00000026	      0.00000000	      0.00000000
      2.73000000	     -6.37258037	     -2.09365600	     -3.29832220	      0.15877949	      0.45002409	     -1.20855290	     98.16797826	    -43.03115940	     18.72520200	    121.13558266	      2.11421476	     34.05540203	     11.88635131	      0.00000000	    105.78193190	    -48.78264616	     28.83355518	    120.81462966	      2.10861307	     32.28817957	     21.34835670	      0.00000000	    -30.49137819	      1.18224348	      0.64629217	     44.99992339	    -14.99999999	     44.99992339	     75.00017585	     45.00000026	      0.00000000	      0.00000000	     44.99992339	    -14.99999999	     44.99992339	     75.00017585	     45.00000026	      0.00000000	      0.00000000
